<?xml version="1.0" encoding="UTF-8"?>
<svg width="640" height="480" xmlns="http://www.w3.org/2000/svg">
 <title>baseball field</title>
 <g>
  <title>Layer 1</title>
  <path transform="rotate(-45.080101013183594 270.3399963378906,209.7864837646485) " stroke="#000000" d="m438.89032,55.205776c-154.236176,-149.682629 -365.510086,-60.183196 -365.510086,-60.183196l-3.501305,367.985293c-21.787987,5.078217 -36.96162,25.28656 -34.706383,47.801056c2.463543,24.547394 24.700989,42.48587 49.667503,40.0672c20.096634,-1.948486 35.81768,-16.508179 39.903168,-34.912689l372.586189,-0.47406c0,-0.003967 87.299194,-218.84108 -58.439087,-360.283604zm-91.760529,301.454288c0,0 -12.178986,1.944458 -23.826691,12.575073c-11.271942,10.292938 -14.021515,25.567749 -14.021515,25.567749l-184.763062,1.301697c-4.003792,-16.656891 -17.318459,-29.360413 -33.823944,-33.148956l3.709633,-185.559479c0,0 19.459312,-3.844833 26.47821,-12.976791c7.022987,-9.135941 11.49659,-23.880463 11.49659,-23.880463l183.218765,-0.208939c0,0 -1.527954,11.200974 10.254639,23.072983c11.762177,11.867859 21.661377,11.558487 21.661377,11.558487l-0.384003,181.698639z" fill="#000000"/>
  <g/>
 </g>
</svg>